<mxfile host="app.diagrams.net" modified="2024-01-27T09:40:02.936Z" agent="Mozilla/5.0 (Windows NT 10.0; Win64; x64) AppleWebKit/537.36 (KHTML, like Gecko) Chrome/120.0.0.0 Safari/537.36" version="22.1.18" etag="paG-UPi1ZwjqMAvqf7u4" type="github">
  <diagram name="Page-1" id="yEEj9goAJV6jJSJVpL_6">
    <mxGraphModel>
      <root>
        <mxCell id="0" />
        <mxCell id="1" parent="0" />
      </root>
    </mxGraphModel>
  </diagram>
</mxfile>
